<?xml version="1.0" encoding="UTF-8"?>
<svg width="26px" height="18px" viewBox="0 0 26 18" version="1.1" xmlns="http://www.w3.org/2000/svg" xmlns:xlink="http://www.w3.org/1999/xlink">
    <!-- Generator: Sketch 41.2 (35397) - http://www.bohemiancoding.com/sketch -->
    <title>menu</title>
    <desc>Created with Sketch.</desc>
    <defs></defs>
    <g id="Page-1" stroke="none" stroke-width="1" fill="none" fill-rule="evenodd">
        <g id="Symbolicons-Air" transform="translate(-957.000000, -1101.000000)" fill="#FFFFFF">
            <path d="M982,1109 L958,1109 C957.45,1109 957,1109.45 957,1110 C957,1110.55 957.45,1111 958,1111 L982,1111 C982.55,1111 983,1110.55 983,1110 C983,1109.45 982.55,1109 982,1109 M982,1117 L958,1117 C957.45,1117 957,1117.45 957,1118 C957,1118.55 957.45,1119 958,1119 L982,1119 C982.55,1119 983,1118.55 983,1118 C983,1117.45 982.55,1117 982,1117 M958,1103 L982,1103 C982.55,1103 983,1102.55 983,1102 C983,1101.45 982.55,1101 982,1101 L958,1101 C957.45,1101 957,1101.45 957,1102 C957,1102.55 957.45,1103 958,1103" id="menu"></path>
        </g>
    </g>
</svg>