<?xml version="1.0" encoding="UTF-8"?>
<svg width="19px" height="19px" viewBox="0 0 19 19" version="1.1" xmlns="http://www.w3.org/2000/svg" xmlns:xlink="http://www.w3.org/1999/xlink">
    <!-- Generator: Sketch 40.1 (33804) - http://www.bohemiancoding.com/sketch -->
    <title>close</title>
    <desc>Created with Sketch.</desc>
    <defs></defs>
    <g id="Page-1" stroke="none" stroke-width="1" fill="none" fill-rule="evenodd">
        <path d="M11.89975,9.071 L17.55675,3.414 C18.33775,2.633 18.33775,1.367 17.55675,0.586 C17.16575,0.195 16.65375,0 16.14275,0 C15.63075,0 15.11875,0.195 14.72775,0.586 L9.07175,6.243 L3.41475,0.586 C3.02375,0.195 2.51175,0 1.99975,0 C1.48875,0 0.97675,0.195 0.58575,0.586 C-0.19525,1.367 -0.19525,2.633 0.58575,3.414 L6.24275,9.071 L0.58575,14.728 C-0.19525,15.509 -0.19525,16.775 0.58575,17.556 C0.97675,17.947 1.48875,18.142 2.00075,18.142 C2.51175,18.142 3.02375,17.947 3.41475,17.556 L9.07175,11.899 L14.72775,17.556 C15.11875,17.947 15.63075,18.142 16.14275,18.142 C16.65375,18.142 17.16575,17.947 17.55675,17.556 C18.33775,16.775 18.33775,15.509 17.55675,14.728 L11.89975,9.071 Z" id="close" fill="#FFFFFF"></path>
    </g>
</svg>