<svg xmlns="http://www.w3.org/2000/svg" viewBox="0 0 658.47 494.98"><defs><style>.a{fill:#7baeb9;}.b{fill:#e8d7ae;}.c,.e,.f{fill:none;}.c{stroke:#fefefe;}.c,.e{stroke-miterlimit:10;}.d{fill:#fff;}.e{stroke:#000;}</style></defs><title>ev_logo_viajes_excelsior</title><circle class="a" cx="307.8" cy="206.16" r="164.42"/><path class="b" d="M375.56,265.9h1.25l-.42,1.58a5.93,5.93,0,0,0,2.5-.42c1-.5-.42-1.25-.42-1.25l.92-2,.67-.92.92-.25,1.42.25,1-.5.75.92,1.42-.58,1.17-.75-.08-1.42.67-1.58a6.1,6.1,0,0,0-.58-2.75,13.22,13.22,0,0,0-.92-1.08l1.17-.33-.83-2.08-1.58.58-.25,1a3.85,3.85,0,0,1-1.75.75c-.75,0-.83-1.08-.83-1.08l-.5,1.25-2.08.42-.83-1.08-1.5-.33s-1.25-3.25-1-3.33,1.17-.25,1.25-.75,1.33-.92,1.33-.92l-.25-1.5,1.42-.25-.75-1.25.83-1.17.17-1h.83l.75-1.08.67-1.76-2-1.92,1.75.17,1.08.42,1.08.92,1.42.25,1.67-.83-.25-1.83h.5l.67.25.75.83s1.42.33,2.08-.33.08-1.08.08-1.08-.42-1.75-.42-2-.25-1.17,1.08-1.33,1.33.08,1.75.67-.83,1-.83,1l.58,1.75,1.58-1s-1.33-1.42-.42-1.92a11.88,11.88,0,0,0,1.25-.75l-.42-1.08c4-1.75,3.75-.33,3.17.08s0,1.67,0,1.67l2.58-.67,1.58,1.75.5-2.25,1.58-.75.75-.75s1.08.25.5,1.67,1.58.58,2.17.5.58-.83.58-.83V233l1.08.5,1.67.58a2.68,2.68,0,0,1,.83.25,2.73,2.73,0,0,0,1.67.33,1.7,1.7,0,0,1,1.5.33c.42.33,3.75-1.25,4.17-1.33s1.17.67,1.67,1,2-.58,2-.58l.58-.58,1.75.08.83-.58.42-1.25s.5.92.83,1,.83,1.58.83,1.58l1.67-.42s.83.83,1.08.83.33-.75.33-.75a6.89,6.89,0,0,1,2.17-.92c.67,0,.42,1,.42,1l.67,1.5.5-.75.5-1.25-.83-1.92.5-.67h1.17a11.09,11.09,0,0,1,2,.33,5.57,5.57,0,0,0,1.42.25l.5,1.67.83,1.42,1.58,1.58h-2.17l-1.75-.25.17,2.08,1.08-.33.83.08.67-.25s1.17-.08,1.58.5-.58,1.58-.58,1.58-.75,1.92-.83,2.17a3.92,3.92,0,0,1-.75.83l-.83,2-.67.5.17,1-.58.83-.33,1.08h-1v1.08l.33,1.42.92,1a8.05,8.05,0,0,1,.33,1.58,4,4,0,0,1-.34,1.25l-.08,1.67-.83-.42a3.53,3.53,0,0,0-1.33,1.42c-.33.83,1.5,0,1.5,0v2s-.33,3.08-.42,3.42-.75,3.42-1.25,3.83-.75,2.17-.75,2.17a17.15,17.15,0,0,0-.67,3.33,3.59,3.59,0,0,0,.33,1.67,24.32,24.32,0,0,1,1.25,3.08,8.18,8.18,0,0,1-.17,2.83s-1.67-2.75-2.08-2.5a9.78,9.78,0,0,0-1.33,1.33l1.33,1.5a5.84,5.84,0,0,1,.58,1.92c-.08.5-2.33,1.67-2.33,1.67l-.58,2.42-.92,1.83-1.08,1.83-2.83,1.17a6.74,6.74,0,0,0-1.33,3.33,5.86,5.86,0,0,1-1.17,3.08l-1.33,2.5s-1.17,1.83-1.67,1.75-1.42,2.42-1.42,3-1.67,2.25-1.67,2.25a22.74,22.74,0,0,0-1.83,3.17,26.67,26.67,0,0,1-2.5,3.33l-.75-1.67-1.5-2-.08-1.17a23.92,23.92,0,0,0,.67-2.33,9,9,0,0,0-.75-2.5l-.5-1.92v-1.92l.58-1.42L410.47,297h-.83v1.58l-.42,1.5a13,13,0,0,0-1.92,1.25,3.42,3.42,0,0,0-.92,2c0,.25.5,3.25.5,3.25l1.25,1,.25,2.33,1.33,1.83,1.42,1.25s.08,2.75-.83,2.83a8.48,8.48,0,0,0-2.42.92v1.67l-.42,1.58-.75,2.75v2.17l.25,1.75L405.31,330l-1.08-1.08.25-3.42s.67-3,.33-3.58-.08-3.08-.58-4a14.09,14.09,0,0,1-.67-3.75s1.58-2.92.67-4.5-1.5-6.92-1.5-7.42.67-2.83.25-4.67a25.78,25.78,0,0,1-.5-4.67c0-.5-2.75-.42-3.25-.5s-1.5-.42-2.58-.58a6.8,6.8,0,0,1-2.75-1.08c-.17-.25-1.75,0-2.67,0s-1.67-1.42-1.67-1.42l-2.17.25-.92-1.75,1.83-.58-.83-2.08v1l-.75.67-1.5.08-.83-1.78-.59-1.56s-1,.25-1.08.67,1.25,1.58,1.25,1.58l-1.67-.17s-1-.58-1.42-.75,0-1.42,0-1.42a11,11,0,0,0-1-1.83,4.83,4.83,0,0,0-1.92-.83l-1.42,1s.08-1.92-.33-1.67-1.92-1.67-1.92-1.67a14.56,14.56,0,0,0,1.67-.83c.5-.33-.17-1.25-.17-1.25v-1.17s1-.83.5-1.08-.42-1.67-.42-1.67l-1.58-2s-.83-1.67-1.42-1.75,0-1.17,0-1.17l1.17-1.58,1-.5.16-.37.41-1-.07-1.17,1.92.42.67-1L375.89,261s-.33-.83-.42-1.17,1.42-.92,1.42-.92a7.45,7.45,0,0,0-1.75.25c-.92.25-3.17-1-3.17-1l-1.75-.58-.75,1.33-1.67.67-1.5-.92-1.58-.42-.92.75-.92.75-1.42,2.17-1.25.67-.92.83-4.08,1.5-1.58-.42-1.25-1-.83-2.08-.08,1.08-1.42-.25-4-.17-5.17-.17-3.08-.33-5.58.17a12.47,12.47,0,0,1-3.08,0,20.72,20.72,0,0,0-3.75-.17,12.75,12.75,0,0,0-2.08.17c-.75.17-3.25-1.08-3.25-1.08l-1.83.42-1.5-.42s-1.42-.5-1.75-1.08-.5-.92-.5-.92a1.41,1.41,0,0,1-.75.83c-.58.25-1.17-1.08-1.67-1.17s-1-.83-1.83-1.25a4.18,4.18,0,0,0-1.67-.42l-1.75-1.17-2.33-1.08a8.27,8.27,0,0,0-1.5-.92,15.66,15.66,0,0,1-1.58-.75l-.92-.5a4.18,4.18,0,0,0-2.33-.25c-1.25.25-1.17.92-1.17.92l1.25.58,1.25.67-1.08.58,1.17.33.67.58.5.33.58.92.75-.25.25.67.42-.25.5-.08h.58l.58.5.08.83.42.92.54-.5,1.33.88L308,262l-.87-.12-1.71-.37-1.79-1s-.75.13-1-.87a1.14,1.14,0,0,0-1.25-.87,1.57,1.57,0,0,1-1.25-.62,1.4,1.4,0,0,0-1.12-.62l-1.5,1.13-.87-1.62-1.5-.37-1.62-.75-1.62-.87-2.5-.87L287.14,252l1.38.75.5-.87-2.12-1.75a4.76,4.76,0,0,1-1.87.38,12,12,0,0,1-2.37-1.37l-2.5-.87-1.38-.25-2-.25a16.29,16.29,0,0,1-1.5-1.5c-.37-.5-.5,1-.5,1l-1.5-.62-1.62-1-2.38-.5-.37-1.37L268,243H266.2l-1.37-1.19-.56-.56-1.5-1.31-.56-1.5-1.44-.94-.75-1.31,1.31-.37a6.07,6.07,0,0,1-1.75-1.94,1.81,1.81,0,0,0-1.06-1.12l1-1.19-1.75-.31-.62-2.06-.75-.94-.81-2.12-.75-.56-.5-.44-.94-2.5s-.81-.44-.5.75a11.46,11.46,0,0,0,.94,2.31l.56,1.25.31,1.06-1.62-1.19-1.19-1.94-.87-1.31-.56-2.25H249.2l-.25-1.5-.37-1.25s-.94.94-.94,1.38v1.31s-1.69.25-1.62-.56a3.53,3.53,0,0,0-.62-1.81l-.69-.5h-1.37l-1.5-.94-1.06-.56-.69-1.62s-.69-1.56-1.13-1.5a3.52,3.52,0,0,1-.87,0s-.69-1.44-1.44-1.75a4,4,0,0,0-1.38-.31l-.69-.31s.44-1.75,1-1.69.75-.12-1-.69-.69.75-.69.75-.81,1.31-1.06.81l-.94-1.87s-.44.94-1.13.69a22.1,22.1,0,0,1-2.62-1.56l-1.25-1.31-.69-.06s.38-.37-.81,0a7.55,7.55,0,0,1-2.56.25h-2.25l-1.44.75-1,.38-1.44.25s-.81-.44-1.19.13a4.91,4.91,0,0,1-.94,1l-1.06,1,.94.68-.94,1.19-.94,1-.81-.94-2.31-.12s1.69.56,1.81,1.31a9.66,9.66,0,0,0,.31,1.31l-.75.75-.81.5h-1l-1.06-.12.5,1.31.5.5v.63l-.75.88h-1l-.69-1.37-.75,1.38v1.25l.75,1,.44,1.25-.25,1.38-1.12.06.12,1.56-.37.88-1.5.13s.12-.06-.13,1.25a27.2,27.2,0,0,0-.5,4,5.8,5.8,0,0,1,.06.81l-.62,1.06s-.25.31-.25,1.56a2.23,2.23,0,0,0,.81,1.81s1-.87,1-1.62a8.7,8.7,0,0,1,.5-2.12l-.06,3.06-1,2.13-.25,1.19-.94-1.19s-.62.19-.12,1.31a5.27,5.27,0,0,1,.5,1.94s-.81.31-.69.75.69,1.69.69,1.69l-.19,1.5-.81,1.25-.81.56-.75-1.56-.75.44-.25,1.56s.75.56.13,1.06-1.69,1.5-1.69,1.5l-.44,1.06-.75.88a1.36,1.36,0,0,0,1.44-.06,4.38,4.38,0,0,1,1.88-.56l-.38,1.81-.94.56-.31,1.31-1.44,1-.31,2.13-.81,1.38s-1.06-1.62-1-2.19.19-1.87.19-1.87l.25-1.62v-1.44h-1.19l.56-2.69,2.69-4.25.12,1.56.94-.56.06-1.37.63-3,1.25-1.56.31-1.69s-1.37-.37-.25-1.44l1.13-1.06s.31-.5-.56-1.06a5.58,5.58,0,0,1-1.37-1.25l-.75-2.19-.94-1.19-.69-.06-1.19-.12-1.44.38s.25.44-.31.44a11.63,11.63,0,0,1-1.94-.37l-1.06-.06s-1.44.5-1.69-.06a5,5,0,0,0-.87-1.19l-.19,1.13L187.2,231l-.75-.25v1.06l-.75.63-1.37.56a2.14,2.14,0,0,0-.75.5c-.38.38-3,1.06-2.5-2.62s1.44-1.69,1.44-1.69l2.81-.75-1.63-1.12h-1.56l-.94-1.25s-.94-.5-.87-1.31a20,20,0,0,0-.25-2.87l-.13-1.06a1.72,1.72,0,0,0-.87-.87c-.63-.25-1.56-.69-1.56-.69l-.75-.19a4.17,4.17,0,0,0,.5-1.81,18.28,18.28,0,0,1,.25-2.56c.06-.37.31-1.31.31-1.31l-1-.31s-.13.88-.19-1.06-.56-2.12-.56-2.12l-.44-.87.81-.5.31-.87-.37-.87-1.19-.12h-1.06l-.81.19a15.82,15.82,0,0,1-.56-2.19,9.84,9.84,0,0,0-.75-1.81v-1.25l2.25-.81-1.56-1.06-.5-.81.69-3,.63-1.56.63.81a2.64,2.64,0,0,0,.75-1.56c0-.81.13-2.12.13-2.12l.31-1.31.69-1.56.69-1.31.31-1.31.69-.19,1.13.13-.63-1.44.81-1.81.81.81a3.29,3.29,0,0,0,1.06-1.75,5.8,5.8,0,0,1,.37-1.62s-1.56.94-1.37,0a7.16,7.16,0,0,0,.13-1.75l.75-.94,1.56-.56,2.25-.12.5,1.25,1.44-.19,1.25-1.37.81,1,1.94-.5h.94l1.25-1.62,1-.56v-1.25s-.62-.56,1-.87,1.81.19,1.81.19l1.62-1.44.38-1.19s1.44-1.25,2.31-.69.37-.94.37-.94L203,168l1.13-1.12.88-.19,1.37-.75.69-1.75.69-1.69,2-1.62.5-.62,1.44-1.44,1.13-1.19.87-.81.81-1.06.94-.69h.88l.62-.81-.81-1.31,1.12-1.87L217,149.8s-.44-1.69.31-1.69a5,5,0,0,0,1.81-.56l-.88-1.19-.44-.69-.44-1.25a14.36,14.36,0,0,0-2.56-1.19c-.44,0-.94-1.44-.94-1.87s1-1.25,1-1.25l-.44-1.25V137.8l1.06-1.19-.56-1.94.06-1.37.81-.44.87,1.13,1.06,1.06s.13-1.75.13-2,.94-.87.94-.87l.81,1.25.12,2.5,1.31.5,1.87-.31,1.13-.12,1.94-.81.61,1.17.52-1.54,1.75-.44,1.62-.06.5,1.06,2.87-.75-.87-1.94,1.12-1.12.38-1.81.25-1.19,1.63-.62,1.87-.56,2.13-.31.63-2.25-1.62-.87-.87-.87.31-1.69,1.56-1.12.31.81,2.31-.75.94.56,1.88-.25,1.56.81.83,1,.83,1.17.67.92h1l2.25-1.25.17,1.33,1,1.17,1.5.33,1-.25,1.67-.42.75.83.67,1.58h1.08l-.83-2.5,1.08-1.25.17-1.83.5-1.17.08-1.17v-1.08l1-.75-.58-1.5-1.5-.08s-1.83.83-1.92,1.17-1,.75-1,.75l-1.42-.5-1.08.42h-.92l-.92-.42-1.75.17-1.08-.08-1-.67,1.08-1.42-.5-1.25-.75-.92v-.92l.83-.17,1.67-.75-.92-1.42,1.08-.33.92-.92.92.17,1.25-1.83,1.5-.83,2.25-2.08s1.42-.67,1.67-.08S262,105,262,105v-1.92s-1.58.17-1.08-.42,2.25-2.92,2.25-2.92l3.62-2.5,5.13-1.5L274,94.12l4.5-2.5,3.12.75,3.87,1.88h4.87l1.87,1.88,2.5,1.63h4.38l6.29,2.37,3,1.88v2.75l3.37,1.5v1.63l.75,1.38.62,2,1.75.38,1.5-2,1.25,1.38,1.12-2.25L319,107l1.75.88,2.13,1.38,1.25,2.38.5,2.63.87,1-.62,1.25h-2.37l.75,1.75,2.38,1.63,1.12,1.38,2,1.63-.75,1.88-2.12.88-1.25.5-.88-2.12v2.63l-.87,1-1.37.25-1.12-.62-1-1.12,1.75-1-.62-1.12-2.25,1.25v2.88l-1.15.38-1.73-.38h-1.5l-.75-.87-.62-1.12-1.87.13-1.12-.62-.62-.5h-1v2.38h-2.46l-3.54.13-1.13-1.25v-1.87l.13-1.75,1.5-.87,1.87-1.12v-1.37l-.87-1.87h-1.25l-.12-1-.25-1-1.62-1.5-.88-.12-1.12-.75-1.25-.62H295v2.88l-1.62-1-1.5-1.12-.87-.62h-1.37a15.66,15.66,0,0,1,0,2.5,4.61,4.61,0,0,0,.5,2.13l.88,2.38.25,1.5-.75,1.88-.12,1-1.25.25-1,.5-.62,1,.88.88,2,.63h2l2,1.75.37,1.63v2.88l-1.25.75-1.25.75-2.62,1.5h-1.38l-1.12.13-1.88.25v1.88l2.13,1.63.13,2.25.63,3.5-.38,3.63v5.63l1.22,1.85,2.18.73,2.23-.21,2.5.38,1,.88h1.5l1.5.38.63.25h2.12l-2.88-2.25,2.13.5,2.13.75.75.75,1.25,1.75,1.11,2.17,1.12.38,2.39-.18,1.5-.5-.12-1.75-.5-2.62-.12-2.25v-1.87l-.87-1.62-1.87-2.25L307,149.37l-1.58-.87-1-1.75v-1.5l.5-.87.54-1.87,1.71-.5-2.38-.75-1.25-.5-.5-1.62-2-1.25v-4.5l1.75-1,2.67-.75h2.71l3.87-.12h2.75l2.35,1.38,2.65,1.88,1.88.5,1.25,2.25,1.75-1.62,1.75-.62,3.12-.12,2.38,1.38h5.75l2.75,1.13,2.62,2.13,1.5.63,1.62,1.38,2.12,1.88,1.63,1.13,2.25,2.25,1,1.25,2.5.63,4.12-1,7.63,8.88.75,1.13h-2.88l-2.12.38-.62.38-1,1.38-2,.75-1,1.5.63,2,1.12.88-.87,2.38-.25,1.25-1.75.63-1.13.75-1-.5-1.37,1.25-1.13,1.63s-.12,3-1.37,3.13a9.26,9.26,0,0,0-3.15,1.44l.4,1.56-.88,1.25.75,3,.75,2s.5,1.25-.12,1.75-2.12,2.13-2.12,2.13l-1.12,2.88v1.63l-.5.75-1,1.63-1.25,1,1.38,2.5-1.25,1.38,1.25,1.25.25-1.5,1.25,2.25.38,2.13L345.14,207l-1.5,2.13v4.63l.38,3,1.12,2,1,2.38.38,1.88,2,1.75,1.75.5,2.25,2.25.63,1.25-2.75.5-1.63.75-2,.38L345,229v-1.75h-1.5L341.89,226l-1.13,1.25-1.5-.37-1.12-1.37-1.5.25-.62,1-3.5.13-.37.75-1.38,1.13-.87,3.25-.5,1.63-1.5.63s-.25,3-.87,2.88a1.32,1.32,0,0,0-1.12.5l.75,1.5.38,1.63,5.5,5.5,1.12,1.75-.5.88h3l1.37.5h1v-1.5l4.5,1.25-.12,1.75h-2l-1.37.63s-.62,1.13,2,.13a12.35,12.35,0,0,1,3.5-1l2,1.75.38,1.13,2.37-.75.25-1.62,1.5-2.25.38.88.87,1.13.13,1.25-.25,1L355,252l.25-2h1.13l.12,1.38h1.25l1.5,1.88v2.38l-1.75,1.13h-1.12v1.38l2.87-.25.75-1.5,2.37-.87,2.5-.12,2,.63,2.62-.5,1.75-.25,2.25-1.25.88-1.25.87,2.25,1.38,1,1,1.38.25.63.25.75"/><path class="b" d="M235,58.2l1.89,10.29.5,2.5.5,4.5-1.5,4,1.6.78-.1,2.55L234.39,86v2l1,4-2.5,3.5-2,2.5-1,3.5h-5l3.3,2.08,1.37.42,4.33-.83,1.5.33-1.17,1.33-2,2.83-1,1.83-1.67,1.67-2,1.5V115l-.5,2.5-1.5.67-1.33,2-2.33,1.67-1.5-.17-2.33-2.5-1.33-2-2,1.17-1.67.33-3.83.5,1.67-5.17.5-2.67-1-1.17-2.67-2.67-1.33-.83-2,2.67-3,1.33-2,3.33h0l-1.06,3.75-2.82.08-2,2,.83,3,.33,1.83,4.5-4.33,2-2.5s.5-2.33,1.17-2.17,3,1.17,3,1.17l1.5,3.83-1.17,1.67-2.67,1.83-3,2-3.09.26-2.58.24-2.17-.17-1.33-3.17a14,14,0,0,1-.33-3.17c.17-.67-.17-2.83,0-3.83s-.5-4,.83-4,2-1.83,2.17-2.33-1.67-3.17-1.67-3.17V104l-2-2.33-2.83,2.17-3.67.83-1.67,2.17-7.51,3s15.47-19.17,19-22S215.76,69,221.76,65.53,235,58.2,235,58.2Z"/><path class="c" d="M241.05,61"/><path class="b" d="M397.47,68.49,381.68,86.21l-4,0-7.39,10.09-3.81,3.63s2.37,7.39,4.66,8.5l4.12,2.11,2.1-1.35,2.14-1,4.35,2.16A46.61,46.61,0,0,1,387.2,114c.54.84,3.6,2.84,3.6,2.84l.9,1.4.19,2.45-1,.26,5.16,9,2.15,4,5.85,3.57a7.87,7.87,0,0,0-3.93,2.52c-1.37,1.87.39,4.31.39,4.31l3.46,2.93s2.66,1.07,1.62,2.53-3.6,4.88-3.63,6.69,1.5,7,1.5,7l1.44,5s25.3,4.56,26.56,3.75a24.68,24.68,0,0,1,4.84-1.72s.36.56,1.74-1.91a7.46,7.46,0,0,0,.74-5l2.44-4.53,3.81-3.63,5.57-4,14,5.12-5.2-15.22S447.14,103.52,397.47,68.49Z"/><path class="b" d="M149.89,161.66h0l1.17,1.67,1.33,3.67h1.83l4,3.5.33,2.17.17,3.17,3-3.33h2.67l2.33,2.33,1.67,2,3,.17.83,3.17.17,3.5.83,1.5-2,2.33-2,2-4,1.67-1,1.17-.5,1.83,2.17,1,.83,2.83.5,2.5.67,1.17-4.17-.33-2.33-3.17-1.83.5-2.33,2.67-3.5,4.5-2.67,1.83-2.5,1-1.17-.17-1-2.5-1-.33-1.17,1-.77,3.53S140.22,193,149.89,161.66Z"/><path class="d" d="M146,235.28s-2.51,2.08-7.11,6.09-11.29,10-19.39,17.94c-4,4-8.42,8.53-12.93,13.67a153.42,153.42,0,0,0-13.45,17.49A78.91,78.91,0,0,0,87.24,301a39.58,39.58,0,0,0-3.45,12,18.21,18.21,0,0,0,2.6,12.08c2.36,3.55,6.39,6,10.79,7.49a55.33,55.33,0,0,0,14.27,2.61,115.49,115.49,0,0,0,15.31-.11,233.72,233.72,0,0,0,32-4.74c21.8-4.64,44.36-11.56,67.27-19.81s46.19-18,69.43-28.68,46.46-22.48,69.25-35S409.86,221,431.29,207a743.78,743.78,0,0,0,60.88-44c9.46-7.66,18.52-15.5,27-23.57a244.05,244.05,0,0,0,23.24-25.08A117.76,117.76,0,0,0,551.67,101a53.6,53.6,0,0,0,6.07-14.31c1.16-4.87,1.05-10-1.32-14s-6.5-6.62-10.86-8.21a52.21,52.21,0,0,0-13.63-2.68,123.46,123.46,0,0,0-13.49-.2,200.55,200.55,0,0,0-25,2.61,387,387,0,0,0-40,9c-11,3-19.52,5.7-25.33,7.57l-8.89,2.93,8.79-3.21c5.75-2,14.2-5,25.11-8.35A388.67,388.67,0,0,1,493.1,62a202.79,202.79,0,0,1,25.21-3.33,98.52,98.52,0,0,1,13.87.1,57.3,57.3,0,0,1,14.41,2.89,29.14,29.14,0,0,1,6.92,3.56,19,19,0,0,1,5.51,6,18.33,18.33,0,0,1,2.38,7.94,27.43,27.43,0,0,1-.74,8.22,56.53,56.53,0,0,1-6.4,15.14,121,121,0,0,1-9.51,13.78,247.32,247.32,0,0,1-23.53,25.39c-8.55,8.14-17.66,16-27.17,23.72a747.07,747.07,0,0,1-61.13,44.14c-21.5,14-43.91,27.4-66.76,40S320,273.84,296.73,284.59s-46.66,20.46-69.67,28.78-45.68,15.25-67.67,19.93a236.65,236.65,0,0,1-32.43,4.8,118.27,118.27,0,0,1-15.71.11,58.25,58.25,0,0,1-15-2.77,29.66,29.66,0,0,1-6.85-3.32,20.16,20.16,0,0,1-5.47-5.31,20.51,20.51,0,0,1-3.1-14.11,41.32,41.32,0,0,1,4-12.79,81.58,81.58,0,0,1,6.33-10.73,155.47,155.47,0,0,1,14.12-17.33c4.69-5,9.22-9.47,13.39-13.37,8.34-7.79,15.27-13.48,20-17.35S146,235.28,146,235.28Z"/><path class="d" d="M141.11,213.25,132,216.58c-5.93,2.2-14.62,5.43-25.5,10-5.43,2.28-11.43,4.86-17.86,7.87s-13.29,6.46-20.3,10.66a105.3,105.3,0,0,0-10.42,7.05,51.89,51.89,0,0,0-4.88,4.3,23.69,23.69,0,0,0-4,5.1,8.28,8.28,0,0,0-1.15,5.89,8.9,8.9,0,0,0,3.75,5,26.8,26.8,0,0,0,6.24,3.19,58.86,58.86,0,0,0,7,2.1c9.72,2.26,20.23,3.15,31.06,3.64s22.11.48,33.67.14c23.13-.72,47.51-2.42,72.65-5s51-6.14,77.25-10.42q19.64-3.29,39.46-7.08t39.57-8.16q19.76-4.32,39.36-9.08t38.84-9.85c25.64-6.84,50.71-14.16,74.64-22.22S558.29,193,578.9,182.67c5.14-2.6,10.11-5.34,14.8-8.34a62.31,62.31,0,0,0,12.61-10.12,15.23,15.23,0,0,0,3.69-6.3,6.81,6.81,0,0,0,.18-1.65,5.92,5.92,0,0,0-.07-.8l0-.2c0,.08,0-.12,0-.16l-.12-.48a7.87,7.87,0,0,0-1.61-2.86,18,18,0,0,0-5.86-4.17,45.54,45.54,0,0,0-7-2.58,102.69,102.69,0,0,0-14.36-2.88c-4.76-.65-9.45-1.07-14-1.37-9.16-.58-17.89-.75-26.1-.72-16.41.07-30.72.89-42.49,1.63s-21,1.56-27.31,2.13l-9.65.92,0-.3,9.63-1.15c6.28-.72,15.5-1.75,27.27-2.8s26.08-2,42.56-2.4c8.24-.17,17-.17,26.26.34,4.62.26,9.37.63,14.21,1.24a105.29,105.29,0,0,1,14.76,2.81,48.3,48.3,0,0,1,7.42,2.66,20.65,20.65,0,0,1,6.82,4.8,10.54,10.54,0,0,1,2.25,4l.12.48a2.85,2.85,0,0,1,.08.32l0,.29a8.48,8.48,0,0,1,.11,1.19,9.52,9.52,0,0,1-.23,2.33,18,18,0,0,1-4.28,7.64,64,64,0,0,1-13.2,10.7c-4.8,3.09-9.85,5.88-15,8.53-10.4,5.28-21.4,10-32.75,14.49s-23.1,8.67-35.13,12.63c-24.06,7.93-49.22,15.19-75,21.82q-19.31,5-39,9.47t-39.53,8.51q-19.83,4.06-39.7,7.68t-39.52,6.89c-26.2,4.37-52.09,8.09-77.21,11.15q-18.85,2.26-37.09,3.83c-12.14,1.06-24.05,1.78-35.66,2.15s-22.93.49-33.87-.05-21.53-1.51-31.52-3.9A61.34,61.34,0,0,1,57,277.83a29.12,29.12,0,0,1-6.78-3.53,14.11,14.11,0,0,1-2.84-2.7A9.29,9.29,0,0,1,45.64,268a9,9,0,0,1,0-4,13.13,13.13,0,0,1,1.4-3.53,25.9,25.9,0,0,1,4.42-5.58,53.68,53.68,0,0,1,5.15-4.41,107,107,0,0,1,10.74-7A230.92,230.92,0,0,1,88,233c6.5-2.93,12.55-5.43,18.06-7.58,11-4.29,19.78-7.34,25.77-9.37l9.21-3Z"/><path class="d" d="M145.35,166.58l-2,.23-5.92.7c-5.18.64-12.78,1.58-22.37,3.27-4.79.86-10.08,1.86-15.77,3.24a110.52,110.52,0,0,0-17.94,5.74A45.47,45.47,0,0,0,76.79,182a23.33,23.33,0,0,0-4.16,3,10.39,10.39,0,0,0-2.89,4,6.17,6.17,0,0,0-.29,1.14l0,.29,0,.14s0,.18,0,.06v1.05l.05.27.09.54a10.61,10.61,0,0,0,.4,1.17A13.75,13.75,0,0,0,73,197.88a32.71,32.71,0,0,0,4.46,3.57,75.63,75.63,0,0,0,10.59,5.77,199.59,199.59,0,0,0,24.3,8.92c8.59,2.6,17.54,5.07,26.84,7.3q7,1.68,14.16,3.24t14.57,3.1q14.76,3,30.23,5.6c20.58,3.53,42,6.38,63.79,8.74q16.36,1.7,33,3t33.3,2.17q16.68.88,33.34,1.4t33.09.73c21.92.25,43.49,0,64.33-1s41-2.46,59.82-5.28A226.53,226.53,0,0,0,546,239.65a81.18,81.18,0,0,0,12.26-4.41,33.5,33.5,0,0,0,5.35-3.1,12.58,12.58,0,0,0,3.86-4.15l.29-.6c.08-.2.13-.41.2-.61a2.37,2.37,0,0,0,.14-.62l0-.31,0-.16c0-.07,0,.1,0-.07v-.77c0-.13,0-.27,0-.38l-.07-.28c0-.19-.08-.37-.11-.56a5.81,5.81,0,0,0-.21-.61,13,13,0,0,0-3.1-4.51,42.48,42.48,0,0,0-9.23-6.59,141.94,141.94,0,0,0-19.61-8.67c-12.71-4.63-24.16-7.7-33.57-10.19s-16.9-4.16-22-5.3l-7.83-1.7.06-.29,7.88,1.48c5.13,1,12.65,2.48,22.17,4.66a349.46,349.46,0,0,1,33.93,9.51,135.37,135.37,0,0,1,20.08,8.47,44.6,44.6,0,0,1,9.85,6.88,15.41,15.41,0,0,1,3.75,5.38,8.38,8.38,0,0,1,.29.84l.19.95.08.48c0,.14,0,.26,0,.39l0,.77a2.23,2.23,0,0,1,0,.32l0,.23-.06.46a4.21,4.21,0,0,1-.19.9c-.09.29-.17.59-.27.87l-.38.82a15.14,15.14,0,0,1-4.59,5.13,36.08,36.08,0,0,1-5.76,3.44,84,84,0,0,1-12.65,4.73,214.76,214.76,0,0,1-27.48,5.76c-9.51,1.44-19.32,2.54-29.37,3.42s-20.32,1.54-30.78,1.93c-20.92.83-42.55,1-64.5.53q-16.47-.36-33.14-1.13t-33.35-2q-16.68-1.18-33.3-2.7t-33-3.23c-21.83-2.29-43.26-5-63.95-8.06q-15.51-2.31-30.39-5c-5-.92-9.85-1.84-14.67-2.84s-9.56-2.07-14.23-3.17C120,221.52,102.41,216.51,87,209.46a77.66,77.66,0,0,1-10.89-6,35,35,0,0,1-4.76-3.87,15.94,15.94,0,0,1-3.6-5.05,12.9,12.9,0,0,1-.5-1.53l-.13-.86-.06-.43v-1.06a1.55,1.55,0,0,1,0-.28l0-.2.06-.4a8.41,8.41,0,0,1,.41-1.55,12.43,12.43,0,0,1,3.57-4.78,25.51,25.51,0,0,1,4.58-3.13A47.3,47.3,0,0,1,80.54,178a112.25,112.25,0,0,1,18.35-5.51c5.76-1.29,11.1-2.2,15.93-2.91,9.67-1.42,17.3-2.16,22.51-2.63l5.95-.48,2-.15Z"/><path class="b" d="M346.45,89.31l3.89-3.23,6.58-2.2,11.48-1.69,3.57-3.3-.1-6.46-1.34-4.77.59-2.45,3.19-7.88-2.83.71-5,4.14-7.93,6.92s-12.39,13.57-13.39,20"/><path class="e" d="M213.28,105"/><path class="e" d="M248.09,366.68"/><path class="d" d="M68.39,436.59l18.55-28.75h4.18L68.39,443.16,45.67,407.84h4.18Z"/><path class="d" d="M97.88,442.12V411.28h3.5v30.83Z"/><path class="d" d="M138.6,432.11h-20l-6.39,10h-4.05l20.52-31.88,20.52,31.88h-4.05Zm-18.18-2.76h16.4l-8.17-12.78Z"/><path class="d" d="M144.87,452.87v-2.64a12.4,12.4,0,0,0,2.64.25c6.33,0,6.94-2.89,6.94-7.25V411.28H158v29.42c0,7.12-.62,12.53-9.77,12.53A18.2,18.2,0,0,1,144.87,452.87Z"/><path class="d" d="M168.4,411.28h30.71v2.89H172v10.32h22.79v2.95H171.9v11.79h27.21v2.89H168.4Z"/><path class="d" d="M221.22,443.35c-5.71,0-11.73-1.35-15-3.19v-3.93a30.84,30.84,0,0,0,15.11,4.18c7.55,0,12.29-2.95,12.29-6,0-8.91-28.25-2.7-28.25-15.79,0-5.9,8-8.35,15.29-8.35,5,0,10.56,1,13.39,2.76v3.5a28.12,28.12,0,0,0-14-3.38c-3.44,0-10.69,1.11-10.69,5.53,0,9.58,28.07,3.5,28.07,15.23C237.44,440.83,229.27,443.35,221.22,443.35Z"/><path class="d" d="M268.28,407.84h34.09v3H272v11.85h25.61v2.95H271.9v13.57h30.47v2.95H268.28Z"/><path class="d" d="M326.88,426.39l15.48,15.73h-4.79l-13.14-13.33-13.27,13.33h-4.73l15.48-15.73-15.54-15.11h5.1l13,12.59,12.9-12.59h5Z"/><path class="d" d="M369,440.34c5.83,0,11.06-1.78,14.62-5.1v4.05a26.87,26.87,0,0,1-14.62,4c-12.35,0-22.3-7.43-22.3-16.65s9.95-16.71,22.3-16.71A27.54,27.54,0,0,1,383.63,414v4.12A21.87,21.87,0,0,0,369,412.88c-10.2,0-18.49,6.14-18.49,13.76S358.82,440.34,369,440.34Z"/><path class="d" d="M393.77,411.28h30.71v2.89H397.33v10.32h22.79v2.95H397.27v11.79h27.21v2.89H393.77Z"/><path class="d" d="M436.59,439.23h26.59v2.89h-30.1V411.28h3.5Z"/><path class="d" d="M482.53,443.35c-5.71,0-11.73-1.35-15-3.19v-3.93a30.83,30.83,0,0,0,15.11,4.18c7.55,0,12.28-2.95,12.28-6,0-8.91-28.25-2.7-28.25-15.79,0-5.9,8-8.35,15.29-8.35,5,0,10.56,1,13.39,2.76v3.5a28.13,28.13,0,0,0-14-3.38c-3.44,0-10.69,1.11-10.69,5.53,0,9.58,28.07,3.5,28.07,15.23C498.75,440.83,490.58,443.35,482.53,443.35Z"/><path class="d" d="M507.78,442.12V411.28h3.5v30.83Z"/><path class="d" d="M543.47,410.05c12.35,0,22.3,7.49,22.3,16.71s-9.95,16.65-22.3,16.65-22.36-7.43-22.36-16.65S531.12,410.05,543.47,410.05Zm0,30.41c10.2,0,18.49-6.14,18.49-13.7S553.66,413,543.47,413s-18.55,6.14-18.55,13.76S533.21,440.46,543.47,440.46Z"/><path class="d" d="M579.09,442.12h-3.5V411.28h19.22c5.47,0,11.67,1.9,11.67,8.17,0,4.54-4,7-8.6,8.11l9.58,14.56h-4.06l-9.21-14.43H579.09Zm0-17.32H594.2c6.2,0,8.54-1.91,8.54-5.34s-2.33-5.28-8.54-5.28H579.09Z"/><rect class="f" width="658.47" height="494.98"/></svg>